<svg width="30" height="30" viewBox="0 0 30 30" fill="none" xmlns="http://www.w3.org/2000/svg">
<g clip-path="url(#clip0_4_399)">
<path d="M30.0375 6.26255C28.9289 6.75474 27.7406 7.0852 26.4914 7.2352C27.7664 6.47114 28.7461 5.26177 29.2055 3.82271C28.0148 4.52817 26.6906 5.04146 25.2867 5.31802C24.1617 4.11802 22.5586 3.37036 20.7844 3.37036C17.3766 3.37036 14.6133 6.1313 14.6133 9.53911C14.6133 10.0219 14.6695 10.493 14.775 10.9454C9.64688 10.6875 5.10234 8.2313 2.05781 4.49771C1.52578 5.41177 1.22344 6.47114 1.22344 7.60083C1.22344 9.74067 2.31094 11.6297 3.96797 12.7383C2.95547 12.7055 2.00391 12.4266 1.17188 11.9649C1.17188 11.9907 1.17188 12.0165 1.17188 12.0422C1.17188 15.0329 3.3 17.5243 6.11953 18.0938C5.60391 18.2344 5.05781 18.3094 4.49531 18.3094C4.09688 18.3094 3.71016 18.2719 3.33281 18.1969C4.12031 20.6461 6.39844 22.4344 9.09609 22.4836C6.98672 24.1383 4.32656 25.1227 1.43438 25.1227C0.935156 25.1227 0.445313 25.0946 -0.0351562 25.036C2.69297 26.7891 5.93672 27.8086 9.42188 27.8086C20.7703 27.8086 26.9766 18.4079 26.9766 10.2563C26.9766 9.98911 26.9695 9.71958 26.9602 9.45708C28.1648 8.58755 29.2102 7.50005 30.0375 6.26255Z" fill="white"/>
</g>
<defs>
<clipPath id="clip0_4_399">
<rect width="30" height="30" fill="white"/>
</clipPath>
</defs>
</svg>
