<svg width="30" height="30" viewBox="0 0 30 30" fill="none" xmlns="http://www.w3.org/2000/svg">
<path d="M24.6 2.40002H5.40002C3.74402 2.40002 2.40002 3.74402 2.40002 5.40002V24.6C2.40002 26.256 3.74402 27.6 5.40002 27.6H24.6C26.256 27.6 27.6 26.256 27.6 24.6V5.40002C27.6 3.74402 26.256 2.40002 24.6 2.40002ZM10.2 12V23.4H6.60002V12H10.2ZM6.60002 8.68202C6.60002 7.84202 7.32002 7.20002 8.40002 7.20002C9.48002 7.20002 10.158 7.84202 10.2 8.68202C10.2 9.52202 9.52802 10.2 8.40002 10.2C7.32002 10.2 6.60002 9.52202 6.60002 8.68202ZM23.4 23.4H19.8C19.8 23.4 19.8 17.844 19.8 17.4C19.8 16.2 19.2 15 17.7 14.976H17.652C16.2 14.976 15.6 16.212 15.6 17.4C15.6 17.946 15.6 23.4 15.6 23.4H12V12H15.6V13.536C15.6 13.536 16.758 12 19.086 12C21.468 12 23.4 13.638 23.4 16.956V23.4Z" fill="white"/>
</svg>
