<svg width="224" height="58" viewBox="0 0 224 58" fill="none" xmlns="http://www.w3.org/2000/svg">
<path d="M23.3196 0.989149H33.6699L36.8284 17.508L46.9357 0.989149H57.2373L49.8998 36.104H40.4243L44.2631 17.6069L36.5854 30.6142H31.5804L29.3451 17.6069L25.4577 36.104H15.9821L23.3196 0.989149Z" fill="white"/>
<path d="M65.0376 36.5986C62.3488 36.5986 60.1621 36.104 58.4776 35.1148C56.8254 34.0927 55.6106 32.7409 54.8331 31.0593C54.0881 29.3778 53.7155 27.5314 53.7155 25.5201C53.7155 23.4429 54.0881 21.4481 54.8331 19.5357C55.5782 17.6234 56.6473 15.9253 58.0403 14.4416C59.4333 12.9249 61.1178 11.7379 63.0939 10.8807C65.1024 10.0234 67.3701 9.59476 69.8969 9.59476C72.6181 9.59476 74.8047 10.0893 76.4569 11.0785C78.1091 12.0676 79.3077 13.403 80.0528 15.0845C80.8303 16.7331 81.219 18.5795 81.219 20.6238C81.219 22.701 80.8465 24.6958 80.1014 26.6081C79.3563 28.5205 78.2872 30.235 76.8942 31.7517C75.5013 33.2355 73.8005 34.4224 71.792 35.3127C69.8159 36.1699 67.5644 36.5986 65.0376 36.5986ZM66.3496 28.6854C67.0299 28.6854 67.6778 28.5205 68.2933 28.1908C68.9412 27.8281 69.5081 27.3335 69.9941 26.7071C70.5124 26.0476 70.9011 25.2893 71.1603 24.432C71.4519 23.5748 71.5976 22.6515 71.5976 21.6624C71.5976 20.7722 71.4843 20.0303 71.2575 19.4368C71.0307 18.8103 70.6906 18.3323 70.237 18.0025C69.7835 17.6728 69.2328 17.508 68.5849 17.508C67.9046 17.508 67.2405 17.6893 66.5926 18.052C65.9771 18.3817 65.4102 18.8763 64.8918 19.5357C64.4059 20.1622 64.0172 20.904 63.7256 21.7613C63.4664 22.6186 63.3369 23.5418 63.3369 24.5309C63.3369 25.3882 63.4503 26.1301 63.677 26.7565C63.9038 27.383 64.2439 27.8611 64.6975 28.1908C65.151 28.5205 65.7017 28.6854 66.3496 28.6854Z" fill="white"/>
<path d="M81.8477 31.3561C81.8477 30.9934 81.8639 30.6307 81.8962 30.268C81.9286 29.9053 81.9934 29.5097 82.0906 29.081L84.5688 17.1618H81.6047L83.1111 10.0893H86.0752L87.776 1.92884H97.0086L95.3078 10.0893H99.9727L98.515 17.1618H93.8015L92.0035 25.7674C91.9711 25.9322 91.9388 26.0971 91.9063 26.2619C91.9063 26.3938 91.9063 26.5257 91.9063 26.6576C91.9063 27.1852 92.0359 27.5643 92.2951 27.7951C92.5543 27.993 92.9106 28.0919 93.3641 28.0919C93.6233 28.0919 93.9149 28.0589 94.2388 27.993C94.5952 27.927 94.9677 27.8281 95.3564 27.6962C95.7776 27.5643 96.1987 27.416 96.6199 27.2511L96.717 34.6697C95.7776 35.0324 94.8057 35.3786 93.8015 35.7083C92.7972 36.0051 91.8092 36.2359 90.8373 36.4007C89.8655 36.5656 88.926 36.648 88.0189 36.648C86.2696 36.648 84.7956 36.2524 83.597 35.461C82.4308 34.6697 81.8477 33.3014 81.8477 31.3561Z" fill="white"/>
<path d="M109.02 36.5986C106.331 36.5986 104.144 36.104 102.46 35.1148C100.808 34.0927 99.5927 32.7409 98.8153 31.0593C98.0702 29.3778 97.6976 27.5314 97.6976 25.5201C97.6976 23.4429 98.0702 21.4481 98.8153 19.5357C99.5603 17.6234 100.629 15.9253 102.022 14.4416C103.415 12.9249 105.1 11.7379 107.076 10.8807C109.085 10.0234 111.352 9.59476 113.879 9.59476C116.6 9.59476 118.787 10.0893 120.439 11.0785C122.091 12.0676 123.29 13.403 124.035 15.0845C124.812 16.7331 125.201 18.5795 125.201 20.6238C125.201 22.701 124.829 24.6958 124.083 26.6081C123.338 28.5205 122.269 30.235 120.876 31.7517C119.483 33.2355 117.783 34.4224 115.774 35.3127C113.798 36.1699 111.547 36.5986 109.02 36.5986ZM110.332 28.6854C111.012 28.6854 111.66 28.5205 112.275 28.1908C112.923 27.8281 113.49 27.3335 113.976 26.7071C114.495 26.0476 114.883 25.2893 115.142 24.432C115.434 23.5748 115.58 22.6515 115.58 21.6624C115.58 20.7722 115.466 20.0303 115.24 19.4368C115.013 18.8103 114.673 18.3323 114.219 18.0025C113.766 17.6728 113.215 17.508 112.567 17.508C111.887 17.508 111.223 17.6893 110.575 18.052C109.959 18.3817 109.392 18.8763 108.874 19.5357C108.388 20.1622 107.999 20.904 107.708 21.7613C107.449 22.6186 107.319 23.5418 107.319 24.5309C107.319 25.3882 107.432 26.1301 107.659 26.7565C107.886 27.383 108.226 27.8611 108.68 28.1908C109.133 28.5205 109.684 28.6854 110.332 28.6854Z" fill="white"/>
<path d="M128.783 10.0893H137.238L136.169 15.0351C137.4 13.2876 138.76 11.9522 140.25 11.029C141.741 10.0728 143.198 9.59476 144.624 9.59476C144.98 9.59476 145.223 9.59476 145.353 9.59476C145.482 9.59476 145.596 9.61125 145.693 9.64422L143.943 18.1014C142.291 18.1014 140.736 18.2993 139.279 18.6949C137.821 19.0906 136.655 19.75 135.78 20.6732L132.573 36.104H123.34L128.783 10.0893Z" fill="white"/>
<path d="M146.432 10.0893H155.664L150.222 36.104H140.989L146.432 10.0893ZM148.521 0H157.754L156.102 7.9132H146.869L148.521 0Z" fill="white"/>
<path d="M159.898 36.5986C155.914 36.5986 153.921 34.5543 153.921 30.4658C153.921 29.9713 153.954 29.4602 154.019 28.9326C154.083 28.3721 154.18 27.7951 154.31 27.2016L157.906 10.0893H167.09L163.98 25.075C163.883 25.5695 163.834 26.0147 163.834 26.4103C163.834 27.927 164.45 28.6854 165.681 28.6854C166.069 28.6854 166.474 28.6194 166.896 28.4875C167.317 28.3556 167.786 28.0919 168.305 27.6962C168.855 27.3005 169.439 26.74 170.054 26.0147L173.407 10.0893H182.64L179.384 25.7179C179.352 25.9487 179.319 26.163 179.287 26.3609C179.254 26.5587 179.238 26.74 179.238 26.9049C179.238 27.7292 179.675 28.1578 180.55 28.1908L178.898 36.104C178.056 36.2688 177.294 36.3843 176.614 36.4502C175.966 36.5491 175.399 36.5986 174.913 36.5986C173.52 36.5986 172.37 36.3348 171.463 35.8072C170.589 35.2467 170.151 34.307 170.151 32.9882C170.151 32.8893 170.151 32.7903 170.151 32.6914C170.184 32.5925 170.2 32.4936 170.2 32.3947C170.232 32.2628 170.248 32.1474 170.248 32.0485C168.791 33.6641 167.203 34.8346 165.486 35.56C163.769 36.2524 161.907 36.5986 159.898 36.5986Z" fill="white"/>
<path d="M186 10.0893H194.31L193.484 13.947C194.618 12.5292 196.027 11.4577 197.711 10.7323C199.428 9.97393 201.21 9.59476 203.057 9.59476C204.514 9.59476 205.648 9.80907 206.458 10.2377C207.268 10.6334 207.851 11.1774 208.207 11.8698C208.564 12.5622 208.774 13.3041 208.839 14.0954C209.617 13.1392 210.507 12.3314 211.512 11.672C212.516 11.0125 213.585 10.5015 214.719 10.1388C215.885 9.7761 217.067 9.59476 218.266 9.59476C219.821 9.59476 221.003 9.87502 221.813 10.4355C222.656 10.9631 223.223 11.672 223.514 12.5622C223.838 13.4195 224 14.3427 224 15.3318C224 15.6286 223.968 16.0737 223.903 16.6672C223.87 17.2607 223.757 18.0355 223.563 18.9917L219.967 36.104H210.734L213.796 21.4646C213.893 20.904 213.941 20.426 213.941 20.0303C213.941 19.2719 213.779 18.7114 213.455 18.3487C213.164 17.9861 212.807 17.8047 212.386 17.8047C211.965 17.8047 211.463 17.9696 210.88 18.2993C210.329 18.629 209.795 19.0741 209.276 19.6346C208.758 20.1952 208.305 20.8216 207.916 21.514L204.903 36.104H195.67L198.732 21.4646C198.797 21.2008 198.829 20.9535 198.829 20.7227C198.861 20.4589 198.878 20.2281 198.878 20.0303C198.878 19.2719 198.716 18.7114 198.392 18.3487C198.1 17.9861 197.728 17.8047 197.274 17.8047C196.626 17.8047 195.865 18.1674 194.99 18.8928C194.115 19.6182 193.403 20.4919 192.852 21.514L189.791 36.104H180.558L186 10.0893Z" fill="white"/>
<path fill-rule="evenodd" clip-rule="evenodd" d="M216.724 44.6568H0L171.463 58L184.276 54.6538L0 44.6568L197.274 49.6026L216.724 44.6568Z" fill="white"/>
</svg>
